<?xml version="1.0" standalone="no"?>
<!DOCTYPE svg PUBLIC "-//W3C//DTD SVG 20010904//EN"
 "http://www.w3.org/TR/2001/REC-SVG-20010904/DTD/svg10.dtd">
<svg version="1.0" xmlns="http://www.w3.org/2000/svg"
 width="1000.000000pt" height="1000.000000pt" viewBox="0 0 1000.000000 1000.000000"
 preserveAspectRatio="xMidYMid meet">
<metadata>
Created by potrace 1.14, written by Peter Selinger 2001-2017
</metadata>
<g transform="translate(0.000000,1000.000000) scale(0.100000,-0.100000)"
fill="#000000" stroke="none">
<path d="M4699 9971 c-24 -16 -172 -109 -329 -206 -316 -197 -368 -229 -473
-296 -39 -25 -193 -121 -342 -214 -148 -92 -292 -182 -320 -200 -40 -26 -655
-409 -1060 -662 -44 -27 -197 -123 -340 -213 -143 -90 -272 -170 -287 -179
-36 -21 -328 -204 -393 -246 -54 -35 -332 -207 -377 -234 l-28 -16 0 -2253 0
-2254 38 23 c20 12 44 28 52 34 8 7 47 31 85 54 98 59 227 138 245 151 42 29
122 80 126 80 3 0 35 20 72 44 37 23 105 67 152 96 47 29 108 67 135 85 59 37
1173 732 1213 756 15 9 142 89 282 178 140 88 289 181 330 206 137 84 235 144
250 155 42 29 122 80 126 80 3 0 42 24 87 53 45 30 120 77 167 106 47 29 189
117 315 197 127 79 251 156 277 171 l48 28 0 2253 c0 1238 -1 2252 -3 2252 -2
0 -23 -13 -48 -29z"/>
<path d="M5252 7748 l3 -2253 458 -286 c251 -157 479 -299 505 -316 104 -66
652 -409 669 -418 19 -10 241 -150 303 -190 52 -34 955 -597 987 -616 32 -19
561 -350 613 -384 19 -12 121 -75 225 -140 105 -65 200 -125 213 -133 l22 -14
0 2253 -1 2254 -367 228 c-411 256 -934 582 -1002 626 -25 16 -227 142 -450
281 -223 138 -421 262 -440 275 -38 25 -251 158 -303 190 -18 11 -57 35 -87
53 -30 18 -99 61 -153 95 -54 34 -252 158 -440 276 -546 341 -579 362 -632
396 -27 17 -67 42 -88 54 l-37 23 2 -2254z"/>
<path d="M4755 4850 c-132 -83 -267 -168 -300 -189 -33 -20 -98 -61 -145 -90
-47 -29 -140 -87 -208 -129 -67 -42 -312 -196 -545 -341 -232 -145 -444 -278
-472 -296 -27 -17 -153 -96 -280 -175 -126 -78 -246 -152 -265 -165 -90 -57
-155 -98 -272 -171 -70 -43 -165 -102 -210 -131 -46 -28 -117 -72 -158 -98
-41 -25 -117 -72 -169 -105 -51 -33 -97 -60 -101 -60 -5 0 -10 -3 -12 -8 -1
-4 -46 -33 -98 -65 -52 -32 -191 -118 -308 -191 -226 -142 -221 -137 -162
-171 23 -13 149 -91 257 -158 45 -29 176 -110 290 -181 114 -71 237 -148 273
-171 36 -23 115 -72 175 -110 61 -37 133 -82 160 -100 28 -18 244 -153 480
-300 237 -147 453 -282 480 -300 28 -17 100 -62 160 -100 61 -37 126 -78 145
-90 19 -12 91 -58 160 -100 69 -43 151 -94 182 -114 31 -20 93 -58 138 -86 44
-27 102 -64 128 -80 26 -17 244 -153 484 -303 l437 -273 108 66 c121 75 496
308 594 371 35 23 168 105 294 184 127 78 253 157 280 175 28 18 298 187 600
375 303 189 573 357 600 375 28 18 262 164 520 325 259 160 486 303 505 315
19 13 140 89 268 168 l232 145 -27 20 c-16 10 -149 95 -298 187 -148 93 -292
183 -320 200 -27 18 -153 97 -280 175 -126 79 -255 159 -285 178 -30 19 -71
45 -90 57 -19 12 -60 38 -90 57 -30 19 -256 160 -502 314 -246 153 -474 296
-505 316 -32 20 -69 43 -83 51 -24 13 -432 267 -495 308 -34 23 -168 106 -430
269 -99 62 -196 123 -215 135 -19 13 -73 46 -120 75 -47 29 -101 62 -120 75
-114 73 -134 85 -139 85 -3 0 -114 -68 -246 -150z"/>
</g>
</svg>
