<svg version="1.1" id="Layer_1" xmlns="http://www.w3.org/2000/svg" x="0" y="0" viewBox="0 0 675.3 213.6"
  xml:space="preserve">
  <style>
    .st1 {
      fill-rule: evenodd;
      clip-rule: evenodd;
      fill: #231f20
    }

    .st2 {
      fill: #fff
    }
  </style>
  <g id="XMLID_1_">
    <g id="g50">
      <linearGradient id="path62_1_" gradientUnits="userSpaceOnUse" x1="-141.5" y1="411.2" x2="-139.8" y2="411.2"
        gradientTransform="matrix(132.5525 0 0 -132.5525 18750.852 54610.832)">
        <stop offset="0" stop-color="#faa61a" />
        <stop offset="1" stop-color="#ffe100" />
      </linearGradient>
      <path id="path62" d="M0 106.8c0 59 47.8 106.8 106.8 106.8s106.8-47.8 106.8-106.8S165.8 0 106.8 0 0 47.8 0 106.8"
        fill="url(#path62_1_)" />
    </g>
    <path id="XMLID_16_" class="st1"
      d="M26.9 36c51.6-4.4 108.2-4.5 159.8 0-19.6-22.1-48.1-36-79.9-36C75 0 46.5 13.9 26.9 36z" />
    <path id="XMLID_15_" class="st1"
      d="M187.8 176.4c-50.1 3.9-109.7 4.2-162 0 19.6 22.8 48.6 37.2 81 37.2s61.4-14.4 81-37.2z" />
    <path id="XMLID_14_" class="st1"
      d="M3.5 79.7c69.5-1.2 137.2-1.4 206.6 0 2.3 8.7 3.5 17.8 3.5 27.1 0 8.1-.9 16.1-2.6 23.7-70.3 2-139.5 1.5-208.4 0C.9 122.9 0 114.9 0 106.8c0-9.4 1.2-18.5 3.5-27.1z" />
    <g id="g16">
      <path id="path22" class="st2"
        d="M648.3 86c-.1 0-.2.1-.2.2v2c0 .1.1.2.2.2h3.8v12.9c0 .1.1.2.2.2h2.1c.1 0 .2-.1.2-.2V88.5h3.8c.1 0 .2-.1.2-.2v-2c0-.1-.1-.2-.2-.2" />
      <path id="path24" class="st2"
        d="M491.5 66.6c0 4.2 3.3 7.4 7.5 7.4s7.5-3.3 7.5-7.4c0-4.1-3.3-7.4-7.5-7.4s-7.5 3.3-7.5 7.4" />
      <path id="path26" class="st2"
        d="M530.6 91.1l-.5.3-1-2.7c-.3-.9-1.2-1.5-2.1-1.5h-4.8c-1.2 0-2.2 1-2.2 2.3V151c0 1.2 1 2.3 2.2 2.3h8.6c1.2 0 2.3-1 2.3-2.3v-49.8l.2-.1c3.6-1.9 7.1-3 14.1-3 8.4 0 10.1 3.1 10.1 8.2V151c0 1.2 1 2.2 2.2 2.2h8.6c1.2 0 2.2-1 2.2-2.2v-44.3c0-13.6-8-20.7-23.2-20.7-5.5-.1-11.2 1.6-16.7 5.1" />
      <path id="path28" class="st2"
        d="M505.4 89.4c0-1.3-1-2.3-2.2-2.3h-8.4c-1.2 0-2.2 1-2.2 2.3v61.5c0 1.2 1 2.2 2.2 2.2h8.4c1.3 0 2.3-1 2.3-2.2" />
      <path id="path30" class="st2"
        d="M476.8 58.6c0-1.3-1-2.3-2.3-2.3h-8.3c-1.3 0-2.3 1-2.3 2.3v92.3c0 1.2 1 2.2 2.3 2.2h8.3c1.3 0 2.3-1 2.3-2.2" />
      <path id="path32" class="st2"
        d="M347.8 114.3c.6-8.5 2.9-16.3 14.8-16.3 10.2 0 12.2 5.5 12.5 16.3v.5h-27.3v-.5zm-13.4 5.9c0 8.5 0 34.3 28.1 34.3 8.4 0 14-.5 21.2-2.8.9-.3 1.3-1.2 1.3-2v-6.9c0-.8-.4-1.5-1-1.9-.6-.4-1.4-.3-2.1-.2-6.3 1.3-11.3 1.7-19.4 1.7-11.7 0-14-7.4-14.7-15.4l-.1-.5h38.2c1.3 0 2.3-1 2.3-2.2v-3.9c0-16.6-2-34.3-25.7-34.3-28.1-.2-28.1 25.6-28.1 34.1" />
      <path id="path34" class="st2"
        d="M411.6 114.3c.6-8.5 2.9-16.3 14.8-16.3 10.2 0 12.2 5.5 12.4 16.3v.5h-27.3l.1-.5zm-13.3 5.9c0 8.5 0 34.3 28.1 34.3 8.4 0 14-.5 21.2-2.8.8-.3 1.3-1.2 1.3-2v-6.9c0-.8-.4-1.5-1-1.9-.6-.4-1.4-.3-2.1-.2-6.3 1.3-11.3 1.7-19.4 1.7-11.7 0-14-7.4-14.7-15.4l-.1-.5h38.2c1.2 0 2.2-1 2.2-2.2v-3.9c0-16.6-2-34.3-25.6-34.3-28.1-.2-28.1 25.6-28.1 34.1" />
      <path id="path36" class="st2"
        d="M595.3 114.3c.6-8.5 2.9-16.3 14.8-16.3 10.2 0 12.2 5.5 12.4 16.3v.5h-27.3l.1-.5zm-13.3 5.9c0 8.5 0 34.3 28.1 34.3 8.4 0 14-.5 21.2-2.8.8-.3 1.3-1.2 1.3-2v-6.9c0-.8-.4-1.5-1-1.9-.6-.4-1.4-.3-2.1-.2-6.3 1.3-11.3 1.7-19.4 1.7-11.7 0-14-7.4-14.7-15.4l-.1-.5h38.2c1.2 0 2.2-1 2.2-2.2v-3.9c0-16.6-2-34.3-25.6-34.3-28.2-.2-28.1 25.6-28.1 34.1" />
      <path id="path38" class="st2"
        d="M292.8 109.4c13.3 0 18 4 18 15.4 0 7.6-2.2 15.4-18.3 15.4h-19.4v-30.9l19.7.1zm-1-40.4c14 0 15.9 6.7 15.9 13.8 0 9.1-4.9 13.6-14.9 13.6h-19.6V69h18.6zM262 56c-1.3 0-2.4 1.1-2.4 2.4v92.3c0 1.3 1.1 2.4 2.4 2.4h30.1c21.5 0 33.3-10.1 33.3-28.4 0-10-4.8-18.5-12.8-22.7l-.4-.2.4-.2c6.2-4.5 9.8-11.4 9.8-18.8 0-10-4-26.8-31.1-26.8" />
      <path id="path40" class="st2"
        d="M672.5 86c-.1 0-.2.1-.2.1s-3.9 9-4.2 9.9c-.4-.9-4.2-9.9-4.2-9.9 0-.1-.1-.1-.2-.1H661c-.1 0-.2.1-.2.2v15.2c0 .1.1.2.2.2h2.1s.1 0 .2-.1c0 0 .1-.1.1-.2 0 0-.1-8.8-.1-10.6.7 1.6 3.8 8.7 3.8 8.7 0 .1.1.1.2.1h1.6c.1 0 .2-.1.2-.1s3.1-7.1 3.8-8.7c0 1.9-.1 10.6-.1 10.6 0 .1 0 .1.1.2 0 .1.1.1.2.1h2.1c.1 0 .2-.1.2-.2V86.2c0-.1-.1-.2-.2-.2" />
    </g>
  </g>
</svg>