<svg version="1.1" id="Layer_1" xmlns="http://www.w3.org/2000/svg" x="0" y="0" viewBox="0 0 516 259"
  xml:space="preserve">
  <style>
    .st1 {
      fill: red
    }

    .st2 {
      fill: #fff
    }
  </style>
  <path fill="#fff" fill-opacity="0" d="M.3.1h515v258.3H.3z" />
  <path class="st1" d="M8.3 249.8h241.4V8.4H8.3z" />
  <path class="st2"
    d="M129 33.2c34.3 0 71 61.3 71 114.5 0 41.7-24.5 77.3-71 77.3s-71-35.6-71-77.3c0-53.2 36.7-114.5 71-114.5" />
  <path class="st1" d="M508.3 249.9H266.9V8.5h241.4z" />
  <path class="st2"
    d="M297.5 100.6h25.4l8.4 34.1h.1l8.3-34.1h25.4v58h-16.9v-37.2h-.2l-10 37.2h-13.3l-10.1-37.2h-.2v37.2h-16.9zM391.1 115.4h-16.3v-14.8h50.4v14.8h-16.3v43.2h-17.8zM468.3 122.2c-.3-2.1-2-8.5-9.3-8.5-8.4 0-11.1 8.1-11.1 15.9 0 7.8 2.7 15.9 11.1 15.9 6 0 8.4-4.2 9.4-9.7h17.5c0 11.7-9.5 24.1-26.5 24.1-18.8 0-29.4-13.2-29.4-30.4 0-18.3 11.5-30.4 29.4-30.4 15.9.1 24.7 8.4 26.2 22.9h-17.3v.2z" />
</svg>