<svg width="92" height="15" viewBox="0 0 92 15" fill="none" xmlns="http://www.w3.org/2000/svg">
  <path
    d="M12.7347 2.79944C13.0724 3.24193 13.3583 3.72265 13.5866 4.23196L7.11082 9.06987L4.40442 7.35051V5.28203L7.11082 7.00139L12.7347 2.79944Z"
    fill="#21A038" />
  <path
    d="M1.64239 7.20458C1.64239 7.11176 1.64462 7.01956 1.64909 6.92789L0.00893259 6.84644C0.00335002 6.96524 1.98205e-06 7.0852 1.98205e-06 7.20625C-0.00069586 8.15215 0.182885 9.08883 0.540219 9.96261C0.897549 10.8364 1.4216 11.6301 2.0823 12.2982L3.2457 11.1197C2.73712 10.6063 2.33366 9.99618 2.05851 9.32429C1.78335 8.65241 1.64194 7.93202 1.64239 7.20458Z"
    fill="url(#paint0_linear)" />
  <path
    d="M7.1094 1.6641C7.20094 1.6641 7.2919 1.66749 7.38234 1.67202L7.46441 0.00922395C7.34684 0.00356627 7.22847 0.000737765 7.1094 0.000737765C6.17562 -0.000416266 5.25087 0.185367 4.38817 0.547419C3.52548 0.909473 2.74185 1.44066 2.08228 2.11049L3.24568 3.28956C3.75223 2.77396 4.35436 2.36492 5.01744 2.08597C5.68051 1.80701 6.39143 1.66364 7.1094 1.6641Z"
    fill="url(#paint1_linear)" />
  <path
    d="M7.10938 12.7452C7.01783 12.7452 6.92682 12.7452 6.83585 12.7379L6.75378 14.4001C6.87176 14.4061 6.9903 14.4092 7.10938 14.4092C8.04276 14.4101 8.96706 14.2242 9.8293 13.8621C10.6915 13.4999 11.4747 12.9687 12.1337 12.2989L10.9725 11.1204C10.4659 11.6357 9.86384 12.0445 9.20089 12.3233C8.53795 12.6022 7.82716 12.7456 7.10938 12.7452Z"
    fill="url(#paint2_linear)" />
  <path
    d="M10.191 2.63084L11.5733 1.59831C10.3099 0.561514 8.73284 -0.00287803 7.10718 1.10367e-05V1.66394C8.208 1.66255 9.28328 1.9997 10.191 2.63084Z"
    fill="url(#paint3_linear)" />
  <path
    d="M14.2183 7.20454C14.2192 6.77168 14.1818 6.33957 14.1066 5.91345L12.5765 7.0563C12.5765 7.10555 12.5765 7.15476 12.5765 7.20454C12.5769 7.97867 12.4167 8.74426 12.1065 9.45165C11.7963 10.159 11.3428 10.7925 10.7755 11.3109L11.8792 12.5471C12.6167 11.8724 13.206 11.0481 13.609 10.1278C14.012 9.20738 14.2195 8.21144 14.2183 7.20454Z"
    fill="#21A038" />
  <path
    d="M7.10939 12.7451C6.34548 12.7454 5.59003 12.583 4.89193 12.2686C4.19387 11.9542 3.56872 11.4947 3.057 10.9199L1.83777 12.0379C2.50347 12.7854 3.31676 13.3828 4.22492 13.7913C5.13307 14.1997 6.11579 14.4102 7.10939 14.409V12.7451Z"
    fill="url(#paint4_linear)" />
  <path
    d="M3.44333 3.09815L2.34022 1.86194C1.60252 2.53655 1.01298 3.36077 0.609817 4.28115C0.206664 5.20151 -0.00109914 6.19749 4.37291e-06 7.20449H1.6424C1.64206 6.4304 1.8022 5.66481 2.11244 4.95742C2.42268 4.25005 2.8761 3.6166 3.44333 3.09815Z"
    fill="url(#paint5_linear)" />
  <path
    d="M41.0258 4.12023L43.06 2.61865H36.2522V11.6418H43.06V10.1402H38.1947V7.82894H42.345V6.32737H38.1947V4.12023H41.0258Z"
    fill="white" />
  <path
    d="M31.6716 6.13379H29.3081V4.11966H33.0802L35.113 2.61353H27.3667V11.6367H31.4216C33.695 11.6367 34.9997 10.6043 34.9997 8.80376C34.9997 7.08127 33.8179 6.13379 31.6716 6.13379ZM31.3341 10.1346H29.3081V7.63444H31.3341C32.5637 7.63444 33.1402 8.05342 33.1402 8.88456C33.1402 9.71565 32.5268 10.1346 31.3341 10.1346Z"
    fill="white" />
  <path
    d="M48.0643 2.61743H44.3586V11.6406H46.3009V9.08446H48.0643C50.4286 9.08446 51.8912 7.83791 51.8912 5.84613C51.8912 3.8544 50.4286 2.61743 48.0643 2.61743ZM48.0234 7.58175H46.3009V4.12015H48.0234C49.267 4.12015 49.9533 4.73521 49.9533 5.85163C49.9533 6.96805 49.267 7.58175 48.0234 7.58175Z"
    fill="white" />
  <path
    d="M24.4519 9.51112C23.9502 9.78337 23.388 9.92433 22.8175 9.92098C21.1099 9.92098 19.8711 8.69946 19.8711 7.01741C19.8711 5.33531 21.1099 4.11113 22.8175 4.11113C23.4333 4.10065 24.0364 4.28776 24.5385 4.64514L25.8972 3.64255L25.8053 3.57714C25.0127 2.87894 23.9538 2.50916 22.7416 2.50916C21.4269 2.50916 20.2347 2.95237 19.3835 3.7587C18.9532 4.17386 18.6128 4.67347 18.3836 5.22632C18.1544 5.77918 18.0414 6.3734 18.0515 6.97199C18.0424 7.57665 18.155 8.17695 18.3825 8.73708C18.6099 9.2972 18.9477 9.80561 19.3756 10.232C20.2307 11.0704 21.4202 11.5323 22.7256 11.5323C24.0896 11.5323 25.2818 11.0557 26.089 10.188L24.8729 9.2802L24.4519 9.51112Z"
    fill="white" />
  <path
    d="M59.5926 6.13379H57.2301V4.11966H62.3071V2.61353H55.2874V11.6367H59.3371C61.6102 11.6367 62.915 10.6043 62.915 8.80376C62.9203 7.08127 61.7388 6.13379 59.5926 6.13379ZM59.2552 10.1346H57.2301V7.63444H59.2552C60.4847 7.63444 61.0609 8.05342 61.0609 8.88456C61.0609 9.71565 60.4529 10.1346 59.2552 10.1346Z"
    fill="white" />
  <path
    d="M84.9977 11.6237H83.0286V2.60059H84.9977V6.39037H86.0695L88.9637 2.60059H91.1954L87.7624 6.893L91.7487 11.6237H89.136L86.2061 8.07502H84.9977V11.6237Z"
    fill="white" />
  <path
    d="M70.0694 9.90889H65.9038L65.1976 11.6611H63.1021L67.0091 2.63794H69.1042L72.9478 11.6611H70.7755L70.0694 9.90889ZM69.417 8.27397L67.9989 4.76956L66.5729 8.27397H69.417Z"
    fill="white" />
  <path
    d="M75.5987 2.63794V6.40584H79.6736V2.63794H81.704V11.6611H79.6736V8.10565H75.5987V11.6611H73.5684V2.63794H75.5987Z"
    fill="white" />
  <defs>
    <linearGradient id="paint0_linear" x1="2.41446" y1="12.0906" x2="0.576927" y2="6.84917"
      gradientUnits="userSpaceOnUse">
      <stop offset="0.14" stop-color="#F1E813" />
      <stop offset="0.3" stop-color="#E6E418" />
      <stop offset="0.58" stop-color="#C9DA26" />
      <stop offset="0.89" stop-color="#A2CC39" />
    </linearGradient>
    <linearGradient id="paint1_linear" x1="2.55121" y1="2.40469" x2="7.18851" y2="0.660947"
      gradientUnits="userSpaceOnUse">
      <stop offset="0.06" stop-color="#0FA7DF" />
      <stop offset="0.54" stop-color="#0098F8" />
      <stop offset="0.92" stop-color="#0290EA" />
    </linearGradient>
    <linearGradient id="paint2_linear" x1="6.6455" y1="13.4049" x2="11.8786" y2="12.2384"
      gradientUnits="userSpaceOnUse">
      <stop offset="0.12" stop-color="#A2CC39" />
      <stop offset="0.28" stop-color="#86C239" />
      <stop offset="0.87" stop-color="#219F38" />
    </linearGradient>
    <linearGradient id="paint3_linear" x1="6.76555" y1="0.557293" x2="11.2441" y2="1.92101"
      gradientUnits="userSpaceOnUse">
      <stop offset="0.06" stop-color="#0290EA" />
      <stop offset="0.79" stop-color="#0C89CA" />
    </linearGradient>
    <linearGradient id="paint4_linear" x1="2.24976" y1="11.8353" x2="7.12908" y2="13.6347"
      gradientUnits="userSpaceOnUse">
      <stop offset="0.13" stop-color="#F1E813" />
      <stop offset="0.3" stop-color="#EAE616" />
      <stop offset="0.53" stop-color="#D8DF1F" />
      <stop offset="0.8" stop-color="#BAD52D" />
      <stop offset="0.98" stop-color="#A2CC39" />
    </linearGradient>
    <linearGradient id="paint5_linear" x1="0.611852" y1="7.40589" x2="2.61001" y2="2.277"
      gradientUnits="userSpaceOnUse">
      <stop offset="0.07" stop-color="#A2CC39" />
      <stop offset="0.26" stop-color="#81C45E" />
      <stop offset="0.92" stop-color="#0FA7DF" />
    </linearGradient>
  </defs>
</svg>