<svg xmlns="http://www.w3.org/2000/svg" width="617" height="637" viewBox="0 0 617 637" fill="none">
  <path
    d="M354.02 318.44c0 23.44-19 42.44-42.44 42.44-23.44 0-42.44-19-42.44-42.44 0-23.44 19-42.44 42.44-42.44 23.44.01 42.44 19.01 42.44 42.44z"
    fill="#00AEEF" />
  <path
    d="M333.56 153.58l1.85-.37c53.8-11.17 92.84-59.21 92.84-114.23V22.15c0-12.11-9.86-21.97-21.97-21.97-12.12 0-21.97 9.86-21.97 21.97v16.83c0 20.14-8.04 38.86-22.64 52.73-13.63 12.96-31.27 19.94-50.08 19.98-18.81-.04-36.44-7.02-50.08-19.98-14.6-13.87-22.64-32.59-22.64-52.73V22.15c0-12.11-9.86-21.97-21.97-21.97-12.12 0-21.97 9.86-21.97 21.97v16.83c0 55.02 39.04 103.07 92.84 114.23l1.85.37v51.82l-1.85.37c-53.8 11.17-92.84 59.21-92.84 114.23v16.83c0 12.11 9.86 21.97 21.97 21.97 12.12 0 21.97-9.86 21.97-21.97V320c0-20.14 8.04-38.86 22.64-52.73 13.63-12.96 31.27-19.94 50.08-19.98 18.81.04 36.44 7.02 50.08 19.98 14.6 13.87 22.64 32.59 22.64 52.73v16.83c0 12.11 9.86 21.97 21.97 21.97 12.12 0 21.97-9.86 21.97-21.97V320c0-55.02-39.04-103.07-92.84-114.23l-1.85-.37v-51.82zM4.98 500.83C2.04 496.3 0 490.87 0 486.12c0-8.15 6.11-17.88 18.33-17.88 7.69 0 12.45 3.85 17.43 11.77l36.21 57.48 36.44-57.48c4.98-7.92 9.73-11.77 17.2-11.77 11.99 0 18.33 9.73 18.33 17.88 0 4.75-2.04 10.41-4.98 14.71l-48.21 73.33v40.06c0 12.22-6.56 21.05-18.56 21.05-11.99 0-18.11-8.83-18.11-21.05v-39.61l-49.1-73.78zm230.54 135.79c-46.85 0-84.87-38.02-84.87-84.87s38.02-84.87 84.87-84.87 84.87 38.02 84.87 84.87-38.02 84.87-84.87 84.87zm0-35.3c26.25 0 48.21-22.63 48.21-49.56 0-26.93-21.95-49.56-48.21-49.56-26.03 0-48.21 22.63-48.21 49.56 0 26.93 22.18 49.56 48.21 49.56zm143.8-95.28H344.7c-11.77 0-19.92-6.56-19.92-18.33s8.15-18.33 19.92-18.33h106.14c11.54 0 20.14 6.56 20.14 18.33s-8.6 18.33-20.14 18.33h-34.85v108.18c0 12.22-6.11 21.05-18.33 21.05-12.22 0-18.33-8.83-18.33-21.05V506.04h-.01zm186.71-15.62l47.75 114.74c2.26 5.21 3.17 9.05 3.17 12.67 0 10.64-7.92 17.43-17.88 17.43-7.69 0-14.03-4.07-17.2-12.22l-9.28-23.76h-70.84l-9.51 23.76c-3.17 7.92-9.28 12.22-16.97 12.22-9.05 0-17.88-6.11-17.88-17.43 0-3.62.91-7.47 3.17-12.67l47.75-114.74c5.43-13.13 15.39-21.05 28.74-21.05 13.14 0 23.55 7.93 28.98 21.05zm-7.01 75.37l-21.73-54.54-21.95 54.54h43.68z"
    fill="#00AEEF" />
</svg>